<svg xmlns="http://www.w3.org/2000/svg" viewBox="0 0 100 100" fill="none" shape-rendering="auto" aria-hidden="true"><!-- Generated by DiceBear (https://www.dicebear.com) --><metadata xmlns:rdf="http://www.w3.org/1999/02/22-rdf-syntax-ns#" xmlns:xsi="http://www.w3.org/2001/XMLSchema-instance" xmlns:dc="http://purl.org/dc/elements/1.1/" xmlns:dcterms="http://purl.org/dc/terms/"><rdf:RDF><rdf:Description><dc:title>Critters</dc:title><dc:creator>DiceBear</dc:creator><dc:source xsi:type="dcterms:URI">https://www.dicebear.com</dc:source><dcterms:license xsi:type="dcterms:URI">https://creativecommons.org/publicdomain/zero/1.0/</dcterms:license><dc:rights>“Critters” (https://www.dicebear.com) by “DiceBear”, licensed under “CC0 1.0” (https://creativecommons.org/publicdomain/zero/1.0/)</dc:rights></rdf:Description></rdf:RDF></metadata><defs><g id="top-hornsIn-5eb23af4"><g opacity=".15" transform="translate(-23 -6.5)"><path d="M36 50c0-18 0-30 8-38-2 10 0 20 0 38Zm28 0c0-18 0-30-8-38 2 10 0 20 0 38Z" fill="#1e293b"/></g><path d="M10 40c0-18 0-30 8-38-2 10 0 20 0 38Zm28 0c0-18 0-30-8-38 2 10 0 20 0 38Z" fill="#fca5a5"/></g><clipPath id="dbcrb-blob"><path d="M14 106V64c0-12 4-24 12-28 6-3 6-10 14-12 6-2 8 3 12 2s3-4 10-3c8 1 6 9 12 13 8 5 12 16 12 28v42Z"/></clipPath><g id="body-blob-5eb23af4"><g class="dbcr-t"><use transform="translate(26 2)" href="#top-hornsIn-5eb23af4"/></g><path d="M17 109.5v-42c0-12 4-24 12-28 6-3 6-10 14-12 6-2 8 3 12 2s3-4 10-3c8 1 6 9 12 13 8 5 12 16 12 28v42Z" fill="#1e293b" opacity=".15"/><path d="M14 106V64c0-12 4-24 12-28 6-3 6-10 14-12 6-2 8 3 12 2s3-4 10-3c8 1 6 9 12 13 8 5 12 16 12 28v42Z" fill="#7dd3fc"/><g clip-path="url(#dbcrb-blob)"><path d="M14 106V64c0-12 4-24 12-28 6-3 6-10 14-12 6-2 8 3 12 2s3-4 10-3c8 1 6 9 12 13 8 5 12 16 12 28v42Zm3.5 4.5v-42c0-12 4-24 12-28 6-3 6-10 14-12 6-2 8 3 12 2s3-4 10-3c8 1 6 9 12 13 8 5 12 16 12 28v42Z" fill="#ffffff" opacity=".16" fill-rule="evenodd"/><path d="M14 106V64c0-12 4-24 12-28 6-3 6-10 14-12 6-2 8 3 12 2s3-4 10-3c8 1 6 9 12 13 8 5 12 16 12 28v42Zm-3.5-4.5v-42c0-12 4-24 12-28 6-3 6-10 14-12 6-2 8 3 12 2s3-4 10-3c8 1 6 9 12 13 8 5 12 16 12 28v42Z" fill="#1e293b" opacity=".1" fill-rule="evenodd"/></g></g><g id="eyes-trio-5eb23af4"><g class="dbcr-eb"><circle cx="9" cy="14" r="5.5" fill="#ffffff"/><circle cx="9" cy="14" r="2.2" fill="#1e293b"/></g><g class="dbcr-eb"><circle cx="23" cy="8" r="5.5" fill="#ffffff"/><circle cx="23" cy="8" r="2.2" fill="#1e293b"/></g><g class="dbcr-eb"><circle cx="37" cy="14" r="5.5" fill="#ffffff"/><circle cx="37" cy="14" r="2.2" fill="#1e293b"/></g></g><g id="mouth-tooth-5eb23af4"><path d="M6 6h16" stroke="#1e293b" stroke-width="3.5" stroke-linecap="round" stroke-linejoin="round"/><rect x="10" y="6" width="8" height="6.5" rx="1.5" fill="#ffffff"/></g><g id="animation-none-5eb23af4"></g><clipPath id="clip-5eb23af4"><rect width="100" height="100" rx="0" ry="0"/></clipPath></defs><g clip-path="url(#clip-5eb23af4)"><rect width="100" height="100" fill="#1e293b"/><g class="dbcr-c"><use href="#body-blob-5eb23af4"/><use transform="translate(27 36)" href="#eyes-trio-5eb23af4"/><use transform="translate(36 60)" href="#mouth-tooth-5eb23af4"/></g><use href="#animation-none-5eb23af4"/></g></svg>