<svg xmlns="http://www.w3.org/2000/svg" viewBox="0 0 100 100" fill="none" shape-rendering="auto" aria-hidden="true"><!-- Generated by DiceBear (https://www.dicebear.com) --><metadata xmlns:rdf="http://www.w3.org/1999/02/22-rdf-syntax-ns#" xmlns:xsi="http://www.w3.org/2001/XMLSchema-instance" xmlns:dc="http://purl.org/dc/elements/1.1/" xmlns:dcterms="http://purl.org/dc/terms/"><rdf:RDF><rdf:Description><dc:title>Critters</dc:title><dc:creator>DiceBear</dc:creator><dc:source xsi:type="dcterms:URI">https://www.dicebear.com</dc:source><dcterms:license xsi:type="dcterms:URI">https://creativecommons.org/publicdomain/zero/1.0/</dcterms:license><dc:rights>“Critters” (https://www.dicebear.com) by “DiceBear”, licensed under “CC0 1.0” (https://creativecommons.org/publicdomain/zero/1.0/)</dc:rights></rdf:Description></rdf:RDF></metadata><defs><g id="top-horns-84cc7b5c"><g opacity=".15" transform="translate(-23 -6.5)"><path d="M36 50c0-20-4-32-10-40 12 4 20 16 20 40Zm28 0c0-20 4-32 10-40-12 4-20 16-20 40Z" fill="#1e293b"/></g><path d="M10 40C10 20 6 8 0 0c12 4 20 16 20 40Zm28 0c0-20 4-32 10-40-12 4-20 16-20 40Z" fill="#6ee7b9"/></g><clipPath id="dbcrb-blob"><path d="M14 106V64c0-12 4-24 12-28 6-3 6-10 14-12 6-2 8 3 12 2s3-4 10-3c8 1 6 9 12 13 8 5 12 16 12 28v42Z"/></clipPath><g id="body-blob-84cc7b5c"><g class="dbcr-t"><use transform="translate(26 2)" href="#top-horns-84cc7b5c"/></g><path d="M17 109.5v-42c0-12 4-24 12-28 6-3 6-10 14-12 6-2 8 3 12 2s3-4 10-3c8 1 6 9 12 13 8 5 12 16 12 28v42Z" fill="#1e293b" opacity=".15"/><path d="M14 106V64c0-12 4-24 12-28 6-3 6-10 14-12 6-2 8 3 12 2s3-4 10-3c8 1 6 9 12 13 8 5 12 16 12 28v42Z" fill="#7dd3fc"/><g clip-path="url(#dbcrb-blob)"><path d="M14 106V64c0-12 4-24 12-28 6-3 6-10 14-12 6-2 8 3 12 2s3-4 10-3c8 1 6 9 12 13 8 5 12 16 12 28v42Zm3.5 4.5v-42c0-12 4-24 12-28 6-3 6-10 14-12 6-2 8 3 12 2s3-4 10-3c8 1 6 9 12 13 8 5 12 16 12 28v42Z" fill="#ffffff" opacity=".16" fill-rule="evenodd"/><path d="M14 106V64c0-12 4-24 12-28 6-3 6-10 14-12 6-2 8 3 12 2s3-4 10-3c8 1 6 9 12 13 8 5 12 16 12 28v42Zm-3.5-4.5v-42c0-12 4-24 12-28 6-3 6-10 14-12 6-2 8 3 12 2s3-4 10-3c8 1 6 9 12 13 8 5 12 16 12 28v42Z" fill="#1e293b" opacity=".1" fill-rule="evenodd"/></g></g><g id="pattern-spot-84cc7b5c"><circle cx="25" cy="12" r="7" fill="#ffffff" opacity=".2"/></g><g id="eyes-uneven-84cc7b5c"><g class="dbcr-eb"><circle cx="10" cy="12" r="8" fill="#ffffff"/><circle cx="10" cy="12" r="3.5" fill="#1e293b"/></g><g class="dbcr-eb"><circle cx="36" cy="14" r="5.5" fill="#ffffff"/><circle cx="36" cy="14" r="2.2" fill="#1e293b"/></g></g><g id="mouth-tooth-84cc7b5c"><path d="M6 6h16" stroke="#1e293b" stroke-width="3.5" stroke-linecap="round" stroke-linejoin="round"/><rect x="10" y="6" width="8" height="6.5" rx="1.5" fill="#ffffff"/></g><g id="animation-none-84cc7b5c"></g><clipPath id="clip-84cc7b5c"><rect width="100" height="100" rx="0" ry="0"/></clipPath></defs><g clip-path="url(#clip-84cc7b5c)"><rect width="100" height="100" fill="#047857"/><g class="dbcr-c"><use href="#body-blob-84cc7b5c"/><use transform="translate(34 75)" href="#pattern-spot-84cc7b5c"/><use transform="translate(27 36)" href="#eyes-uneven-84cc7b5c"/><use transform="translate(36 60)" href="#mouth-tooth-84cc7b5c"/></g><use href="#animation-none-84cc7b5c"/></g></svg>