<svg xmlns="http://www.w3.org/2000/svg" viewBox="0 0 100 100" fill="none" shape-rendering="auto" aria-hidden="true"><!-- Generated by DiceBear (https://www.dicebear.com) --><metadata xmlns:rdf="http://www.w3.org/1999/02/22-rdf-syntax-ns#" xmlns:xsi="http://www.w3.org/2001/XMLSchema-instance" xmlns:dc="http://purl.org/dc/elements/1.1/" xmlns:dcterms="http://purl.org/dc/terms/"><rdf:RDF><rdf:Description><dc:title>Critters</dc:title><dc:creator>DiceBear</dc:creator><dc:source xsi:type="dcterms:URI">https://www.dicebear.com</dc:source><dcterms:license xsi:type="dcterms:URI">https://creativecommons.org/publicdomain/zero/1.0/</dcterms:license><dc:rights>“Critters” (https://www.dicebear.com) by “DiceBear”, licensed under “CC0 1.0” (https://creativecommons.org/publicdomain/zero/1.0/)</dc:rights></rdf:Description></rdf:RDF></metadata><defs><clipPath id="dbcrb-lean"><path d="M78 106V64c0-30-10-44-24-42-22 2-32 18-32 78v6Z"/></clipPath><g id="body-lean-1a1c5dc4"><g class="dbcr-t"/><path d="M81 109.5v-42c0-30-10-44-24-42-22 2-32 18-32 78v6Z" fill="#1e293b" opacity=".15"/><path d="M78 106V64c0-30-10-44-24-42-22 2-32 18-32 78v6Z" fill="#e2e8f0"/><g clip-path="url(#dbcrb-lean)"><path d="M78 106V64c0-30-10-44-24-42-22 2-32 18-32 78v6Zm3.5 4.5v-42c0-30-10-44-24-42-22 2-32 18-32 78v6Z" fill="#ffffff" opacity=".16" fill-rule="evenodd"/><path d="M78 106V64c0-30-10-44-24-42-22 2-32 18-32 78v6Zm-3.5-4.5v-42c0-30-10-44-24-42-22 2-32 18-32 78v6Z" fill="#1e293b" opacity=".1" fill-rule="evenodd"/></g></g><g id="eyes-round-1a1c5dc4"><g class="dbcr-eb"><circle cx="10" cy="13" r="7" fill="#ffffff"/><circle cx="10" cy="13" r="3" fill="#1e293b"/></g><g class="dbcr-eb"><circle cx="36" cy="13" r="7" fill="#ffffff"/><circle cx="36" cy="13" r="3" fill="#1e293b"/></g></g><g id="mouth-frown-1a1c5dc4"><path d="M4 11q10-10 20 0" stroke="#1e293b" stroke-width="3.5" stroke-linecap="round" stroke-linejoin="round"/></g><g id="animation-none-1a1c5dc4"></g><clipPath id="clip-1a1c5dc4"><rect width="100" height="100" rx="0" ry="0"/></clipPath></defs><g clip-path="url(#clip-1a1c5dc4)"><rect width="100" height="100" fill="#be185d"/><g class="dbcr-c"><use href="#body-lean-1a1c5dc4"/><use transform="translate(27 36)" href="#eyes-round-1a1c5dc4"/><use transform="translate(36 60)" href="#mouth-frown-1a1c5dc4"/></g><use href="#animation-none-1a1c5dc4"/></g></svg>