<svg xmlns="http://www.w3.org/2000/svg" viewBox="0 0 100 100" fill="none" shape-rendering="auto" aria-hidden="true"><!-- Generated by DiceBear (https://www.dicebear.com) --><metadata xmlns:rdf="http://www.w3.org/1999/02/22-rdf-syntax-ns#" xmlns:xsi="http://www.w3.org/2001/XMLSchema-instance" xmlns:dc="http://purl.org/dc/elements/1.1/" xmlns:dcterms="http://purl.org/dc/terms/"><rdf:RDF><rdf:Description><dc:title>Critters</dc:title><dc:creator>DiceBear</dc:creator><dc:source xsi:type="dcterms:URI">https://www.dicebear.com</dc:source><dcterms:license xsi:type="dcterms:URI">https://creativecommons.org/publicdomain/zero/1.0/</dcterms:license><dc:rights>“Critters” (https://www.dicebear.com) by “DiceBear”, licensed under “CC0 1.0” (https://creativecommons.org/publicdomain/zero/1.0/)</dc:rights></rdf:Description></rdf:RDF></metadata><defs><clipPath id="dbcrb-dome"><path d="M16 106V58a34 34 0 0 1 68 0v48Z"/></clipPath><g id="body-dome-47a29f23"><g class="dbcr-t"/><path d="M19 109.5v-48a34 34 0 0 1 68 0v48Z" fill="#1e293b" opacity=".15"/><path d="M16 106V58a34 34 0 0 1 68 0v48Z" fill="#5eead4"/><g clip-path="url(#dbcrb-dome)"><path d="M16 106V58a34 34 0 0 1 68 0v48Zm3.5 4.5v-48a34 34 0 0 1 68 0v48Z" fill="#ffffff" opacity=".16" fill-rule="evenodd"/><path d="M16 106V58a34 34 0 0 1 68 0v48Zm-3.5-4.5v-48a34 34 0 0 1 68 0v48Z" fill="#1e293b" opacity=".1" fill-rule="evenodd"/></g></g><g id="eyes-mono-47a29f23"><g class="dbcr-eb"><circle cx="23" cy="11" r="11" fill="#ffffff"/><circle cx="23" cy="11" r="4.5" fill="#1e293b"/></g></g><g id="mouth-wavy-47a29f23"><path d="M3 7q4-4 8 0t8 0 8 0" stroke="#1e293b" stroke-width="3" stroke-linecap="round" stroke-linejoin="round"/></g><g id="animation-none-47a29f23"></g><clipPath id="clip-47a29f23"><rect width="100" height="100" rx="0" ry="0"/></clipPath></defs><g clip-path="url(#clip-47a29f23)"><rect width="100" height="100" fill="#a21caf"/><g class="dbcr-c"><use href="#body-dome-47a29f23"/><use transform="translate(27 36)" href="#eyes-mono-47a29f23"/><use transform="translate(36 60)" href="#mouth-wavy-47a29f23"/></g><use href="#animation-none-47a29f23"/></g></svg>