<svg xmlns="http://www.w3.org/2000/svg" viewBox="0 0 100 100" fill="none" shape-rendering="auto" aria-hidden="true"><!-- Generated by DiceBear (https://www.dicebear.com) --><metadata xmlns:rdf="http://www.w3.org/1999/02/22-rdf-syntax-ns#" xmlns:xsi="http://www.w3.org/2001/XMLSchema-instance" xmlns:dc="http://purl.org/dc/elements/1.1/" xmlns:dcterms="http://purl.org/dc/terms/"><rdf:RDF><rdf:Description><dc:title>Critters</dc:title><dc:creator>DiceBear</dc:creator><dc:source xsi:type="dcterms:URI">https://www.dicebear.com</dc:source><dcterms:license xsi:type="dcterms:URI">https://creativecommons.org/publicdomain/zero/1.0/</dcterms:license><dc:rights>“Critters” (https://www.dicebear.com) by “DiceBear”, licensed under “CC0 1.0” (https://creativecommons.org/publicdomain/zero/1.0/)</dc:rights></rdf:Description></rdf:RDF></metadata><defs><clipPath id="dbcrb-squat"><path d="M8 106V70c0-24 16-36 42-36s42 12 42 36v36Z"/></clipPath><g id="body-squat-8c8fafc3"><g class="dbcr-t"/><path d="M11 109.5v-36c0-24 16-36 42-36s42 12 42 36v36Z" fill="#1e293b" opacity=".15"/><path d="M8 106V70c0-24 16-36 42-36s42 12 42 36v36Z" fill="#fdba74"/><g clip-path="url(#dbcrb-squat)"><path d="M8 106V70c0-24 16-36 42-36s42 12 42 36v36Zm3.5 4.5v-36c0-24 16-36 42-36s42 12 42 36v36Z" fill="#ffffff" opacity=".16" fill-rule="evenodd"/><path d="M8 106V70c0-24 16-36 42-36s42 12 42 36v36Zm-3.5-4.5v-36c0-24 16-36 42-36s42 12 42 36v36Z" fill="#1e293b" opacity=".1" fill-rule="evenodd"/></g></g><g id="pattern-belly-8c8fafc3"><ellipse cx="16" cy="13" rx="15" ry="13" fill="#ffffff" opacity=".2"/></g><g id="cheeks-blushBig-8c8fafc3"><ellipse cx="5" cy="5" rx="4.5" ry="3" fill="#ffffff" opacity=".3"/><ellipse cx="39" cy="5" rx="4.5" ry="3" fill="#ffffff" opacity=".3"/></g><g id="eyes-bigPupils-8c8fafc3"><g class="dbcr-eb"><circle cx="10" cy="13" r="7" fill="#ffffff"/><circle cx="10" cy="13" r="5" fill="#1e293b"/></g><g class="dbcr-eb"><circle cx="36" cy="13" r="7" fill="#ffffff"/><circle cx="36" cy="13" r="5" fill="#1e293b"/></g></g><g id="mouth-catMouth-8c8fafc3"><path d="M6 6q4 4 8 0 4 4 8 0" stroke="#1e293b" stroke-width="3" stroke-linecap="round" stroke-linejoin="round"/></g><g id="animation-none-8c8fafc3"></g><clipPath id="clip-8c8fafc3"><rect width="100" height="100" rx="0" ry="0"/></clipPath></defs><g clip-path="url(#clip-8c8fafc3)"><rect width="100" height="100" fill="#1e293b"/><g class="dbcr-c"><use href="#body-squat-8c8fafc3"/><use transform="translate(34 75)" href="#pattern-belly-8c8fafc3"/><use transform="translate(28 53)" href="#cheeks-blushBig-8c8fafc3"/><use transform="translate(27 36)" href="#eyes-bigPupils-8c8fafc3"/><use transform="translate(36 60)" href="#mouth-catMouth-8c8fafc3"/></g><use href="#animation-none-8c8fafc3"/></g></svg>